<?xml version="1.0" encoding="UTF-8"?>
<svg xmlns="http://www.w3.org/2000/svg" id="Layer_1" data-name="Layer 1" viewBox="0 0 512 512" width="512" height="512"><path d="M93.871,281h62.745a6.149,6.149,0,0,0,5.891-7.285l-11.346-58.776a6.068,6.068,0,0,0-5.89-4.939h-51.4a35.5,35.5,0,0,0,0,71Zm0-59h46.448l9.027,47H93.871a23.5,23.5,0,0,1,0-47Z"/><path d="M149.406,101H251.162a6,6,0,0,0,0-12H149.406a6,6,0,0,0,0,12Z"/><path d="M130.723,89h-4.885a6,6,0,0,0,0,12h4.885a6,6,0,0,0,0-12Z"/><path d="M497.015,210.548l-43.748-7.508A169.982,169.982,0,0,0,440.7,172.647l25.674-36.376a6,6,0,0,0-.653-7.7L414.506,77.2a6,6,0,0,0-7.723-.656L370.5,102.309c-9.595-4.85-19.459-7.584-29.836-10.462l-.441-.122-7.455-41.779A6,6,0,0,0,326.859,45H290a6,6,0,0,0-6,6V61H135.132A43.012,43.012,0,0,0,94.925,89.3L60.674,183.33A41.088,41.088,0,0,0,22,224.191V316H20.571A10.481,10.481,0,0,0,10,326.451v40.785A10.75,10.75,0,0,0,20.571,378H27l.337,47.577a22.362,22.362,0,0,0,6.9,16.043A22.738,22.738,0,0,0,50.489,448h.176l46.484-.073a22.9,22.9,0,0,0,16.329-6.786,22.653,22.653,0,0,0,6.663-16.271L119.81,378H284v83a6,6,0,0,0,6,6h36.859a6,6,0,0,0,5.918-5.014l7.5-45.006a169.417,169.417,0,0,0,30.29-13.131l36.241,25.474a6,6,0,0,0,7.7-.678l51.218-51.511a6,6,0,0,0,.651-7.686L440.707,333a170.25,170.25,0,0,0,12.562-30.433l43.751-7.541a6,6,0,0,0,4.98-5.912V216.462A6,6,0,0,0,497.015,210.548ZM104.93,432.885a11.067,11.067,0,0,1-7.865,3.3l-46.484.3a11.174,11.174,0,0,1-11.244-10.99L39,378h68.808l.332,47.016A10.981,10.981,0,0,1,104.93,432.885ZM284,366H22V328H284Zm0-50H177.812l15.037-20H284Zm0-100H195.315a6,6,0,0,0,0,12H284v10H195.315a6,6,0,0,0,0,12H284v8H195.315a6,6,0,0,0,0,12H284v14H189.87a6.092,6.092,0,0,0-4.779,2.466L162.748,316H34V224.191A29.4,29.4,0,0,1,63.13,195H284Zm0-33H73.6L106.2,93.233A30.833,30.833,0,0,1,135.132,73H284Zm12,9.563a60.519,60.519,0,0,1,0,120.591Zm0,132.627a72.518,72.518,0,0,0,0-144.663V135.763c61.729,2.654,111.842,54.157,111.842,117.1S357.729,367.3,296,369.954Zm194-41.129-42.463,7.318a6,6,0,0,0-4.76,4.3,158.056,158.056,0,0,1-14.358,34.79,6,6,0,0,0,.327,6.391l24.927,35.384-44.1,44.354L374.4,391.872a6,6,0,0,0-6.4-.317c-12.414,7.007-23.746,11.9-34.643,14.965a6,6,0,0,0-4.295,4.79L321.776,455H296V381.963c68.694-2.646,123.842-59.538,123.842-129.105S364.694,126.4,296,123.754V57h25.835l7.235,40.546a6,6,0,0,0,4.284,4.723q2.063.579,4.1,1.142c10.879,3.016,21.155,5.865,30.541,11.163a6,6,0,0,0,6.423-.333L409.592,89.27l44.071,44.2-24.92,35.308a6,6,0,0,0-.33,6.4,157.961,157.961,0,0,1,14.364,34.755,6,6,0,0,0,4.765,4.3L490,221.52Z"/></svg>
